<svg width="386" height="354" viewBox="0 0 386 354" fill="none" xmlns="http://www.w3.org/2000/svg">
<path d="M257.895 270.002L222.491 281.677L244.656 348.896L280.061 337.222L257.895 270.002Z" fill="#76A6EF" fill-opacity="0.8"/>
<path d="M244.36 349.5L244.2 349.02L221.87 281.32L258.22 269.32L258.38 269.8L280.71 337.5L244.36 349.5ZM223.14 282L245 348.24L279.45 336.88L257.59 270.6L223.14 282Z" fill="black"/>
<path d="M219.67 282.09H182.39V352.87H219.67V282.09Z" fill="#76A6EF" fill-opacity="0.7"/>
<path d="M220.17 353.37H181.89V281.59H220.17V353.37ZM182.89 352.37H219.17V282.59H182.89V352.37Z" fill="black"/>
<path d="M219.67 317.48H182.39V340.46H219.67V317.48Z" fill="#FFF0DC"/>
<path d="M220.17 341H181.89V317H220.17V341ZM182.89 340H219.17V318H182.89V340Z" fill="black"/>
<path d="M268.976 303.613L233.571 315.288L240.767 337.112L276.172 325.438L268.976 303.613Z" fill="#FFF0DC"/>
<path d="M240.47 337.71L233 314.94L269.35 302.94L276.86 325.71L240.47 337.71ZM234.22 315.57L241.1 336.44L275.55 325.08L268.67 304.21L234.22 315.57Z" fill="black"/>
<path d="M219.67 322.42H182.39V326.86H219.67V322.42Z" fill="#76A6EF"/>
<path d="M220.17 327.36H181.89V321.92H220.17V327.36ZM182.89 326.36H219.17V322.92H182.89V326.36Z" fill="black"/>
<path d="M270.529 308.307L235.125 319.981L236.515 324.198L271.92 312.523L270.529 308.307Z" fill="#76A6EF"/>
<path d="M236.21 324.79L234.51 319.62L270.86 307.62L272.56 312.78L236.21 324.79ZM235.77 320.26L236.85 323.52L271.3 312.16L270.22 308.9L235.77 320.26Z" fill="black"/>
<path d="M90.33 144.12H200L143.09 280.73L68.66 189.88C53.68 171.59 66.69 144.12 90.33 144.12Z" fill="#FFF0DC"/>
<path d="M143.23 281.69L68.23 190.19C64.8113 186.014 62.6481 180.954 61.9919 175.597C61.3356 170.24 62.2132 164.807 64.5227 159.93C66.8322 155.052 70.4786 150.93 75.0382 148.043C79.5978 145.156 84.8832 143.622 90.28 143.62H200.77L200.48 144.31L143.23 281.69ZM90.33 144.62C85.1173 144.611 80.0095 146.084 75.6013 148.866C71.1931 151.648 67.666 155.625 65.4309 160.334C63.1958 165.043 62.3446 170.29 62.9765 175.465C63.6084 180.639 65.6973 185.527 69 189.56L142.9 279.77L199.22 144.62H90.33Z" fill="black"/>
<path d="M280 18.89C279.277 14.2881 277.014 10.0678 273.581 6.91958C270.147 3.77139 265.747 1.88178 261.1 1.55998C258.226 1.35808 255.342 1.7621 252.634 2.74587C249.926 3.72964 247.456 5.27122 245.382 7.27076C243.308 9.27031 241.677 11.6832 240.595 14.3532C239.512 17.0232 239.003 19.8907 239.1 22.77L240.5 64.5C232.576 58.5685 222.895 55.46 213 55.67C202.752 55.8698 192.887 59.6039 185.075 66.2405C177.263 72.8771 171.984 82.0086 170.13 92.09L130.59 307.3H325.27L280 18.89Z" fill="#FFF0DC"/>
<path d="M325.85 307.8H130L130.11 307.21L169.67 92C171.57 81.8212 176.913 72.6056 184.802 65.8995C192.692 59.1934 202.648 55.405 213 55.17C222.667 54.9354 232.146 57.8599 240 63.5L238.63 22.79C238.448 17.4287 240.319 12.2 243.859 8.17007C247.4 4.14011 252.344 1.61236 257.684 1.1022C263.024 0.592046 268.358 2.13791 272.597 5.4246C276.837 8.7113 279.663 13.4913 280.5 18.79L325.85 307.8ZM131.18 306.8H324.68L279.49 19C278.687 13.9604 275.994 9.41591 271.96 6.29101C267.925 3.16612 262.852 1.6955 257.771 2.17831C252.691 2.66112 247.985 5.0611 244.612 8.89004C241.238 12.719 239.449 17.6893 239.61 22.79L241 65.53L240.17 64.91C232.353 59.0267 222.781 55.9479 213 56.17C202.876 56.3946 193.137 60.095 185.419 66.6501C177.7 73.2052 172.471 82.216 170.61 92.17L131.18 306.8Z" fill="black"/>
<path d="M244.52 197.149L243.52 197.179L245.822 273.909L246.822 273.879L244.52 197.149Z" fill="black"/>
<path d="M242.88 135L239.11 22.73C239.013 19.8507 239.522 16.9832 240.605 14.3132C241.687 11.6432 243.318 9.23033 245.392 7.23079C247.466 5.23125 249.936 3.68966 252.644 2.70589C255.352 1.72212 258.236 1.3181 261.11 1.52C265.761 1.84582 270.164 3.74214 273.596 6.89811C277.028 10.0541 279.286 14.2824 280 18.89" fill="#FFF0DC"/>
<path d="M242.38 135.06L238.61 22.79C238.428 17.4287 240.299 12.2 243.839 8.17007C247.38 4.14011 252.324 1.61236 257.664 1.1022C263.004 0.592046 268.338 2.13791 272.577 5.4246C276.817 8.7113 279.643 13.4913 280.48 18.79L279.48 18.94C278.677 13.9004 275.984 9.35589 271.95 6.231C267.915 3.10611 262.842 1.6355 257.761 2.11831C252.681 2.60112 247.975 5.00108 244.602 8.83003C241.228 12.659 239.439 17.6293 239.6 22.73L243.38 135L242.38 135.06Z" fill="black"/>
<path d="M282.134 258.556L281.138 258.647L285.577 307.335L286.573 307.244L282.134 258.556Z" fill="black"/>
<path d="M172.834 206.116L154.178 307.168L155.161 307.349L173.817 206.297L172.834 206.116Z" fill="black"/>
<path d="M200.16 99.71C200.16 104.2 196.52 107.84 192.03 107.84C187.54 107.84 183.9 104.2 183.9 99.71C183.9 95.2199 187.54 91.58 192.03 91.58C196.52 91.58 200.16 95.2199 200.16 99.71Z" fill="black" stroke="black"/>
<path d="M192 108.84C190.194 108.84 188.429 108.305 186.928 107.301C185.426 106.298 184.256 104.872 183.565 103.204C182.874 101.536 182.693 99.6999 183.045 97.9288C183.398 96.1578 184.267 94.531 185.544 93.2541C186.821 91.9773 188.448 91.1077 190.219 90.7555C191.99 90.4032 193.826 90.584 195.494 91.275C197.162 91.966 198.588 93.1362 199.591 94.6377C200.595 96.1391 201.13 97.9043 201.13 99.71C201.127 102.131 200.165 104.451 198.453 106.163C196.741 107.875 194.421 108.837 192 108.84ZM192 91.58C190.392 91.58 188.82 92.0568 187.483 92.9502C186.146 93.8435 185.104 95.1132 184.489 96.5988C183.874 98.0844 183.713 99.719 184.026 101.296C184.34 102.873 185.114 104.322 186.251 105.459C187.388 106.596 188.837 107.37 190.414 107.684C191.991 107.997 193.626 107.837 195.111 107.221C196.597 106.606 197.867 105.564 198.76 104.227C199.653 102.89 200.13 101.318 200.13 99.71C200.127 97.5546 199.27 95.4883 197.746 93.9642C196.222 92.4401 194.155 91.5827 192 91.58Z" fill="black"/>
<g filter="url(#filter0_d_31_84)">
<path d="M223.54 108.34C228.306 108.34 232.17 104.476 232.17 99.71C232.17 94.9438 228.306 91.08 223.54 91.08C218.774 91.08 214.91 94.9438 214.91 99.71C214.91 104.476 218.774 108.34 223.54 108.34Z" fill="black"/>
<path d="M231.67 99.71C231.67 104.2 228.03 107.84 223.54 107.84C219.05 107.84 215.41 104.2 215.41 99.71C215.41 95.2199 219.05 91.58 223.54 91.58C228.03 91.58 231.67 95.2199 231.67 99.71Z" stroke="black"/>
</g>
<path d="M223.54 108.84C221.734 108.84 219.969 108.305 218.468 107.301C216.966 106.298 215.796 104.872 215.105 103.204C214.414 101.536 214.233 99.6999 214.585 97.9288C214.938 96.1578 215.807 94.531 217.084 93.2541C218.361 91.9773 219.988 91.1077 221.759 90.7555C223.53 90.4032 225.366 90.584 227.034 91.275C228.702 91.966 230.128 93.1362 231.131 94.6377C232.135 96.1391 232.67 97.9043 232.67 99.71C232.667 102.131 231.705 104.451 229.993 106.163C228.281 107.875 225.961 108.837 223.54 108.84ZM223.54 91.58C221.932 91.58 220.36 92.0568 219.023 92.9502C217.686 93.8435 216.644 95.1132 216.029 96.5988C215.414 98.0844 215.253 99.719 215.566 101.296C215.88 102.873 216.654 104.322 217.791 105.459C218.928 106.596 220.377 107.37 221.954 107.684C223.531 107.997 225.166 107.837 226.651 107.221C228.137 106.606 229.406 105.564 230.3 104.227C231.193 102.89 231.67 101.318 231.67 99.71C231.667 97.5546 230.81 95.4883 229.286 93.9642C227.762 92.4401 225.695 91.5827 223.54 91.58Z" fill="black"/>
<path d="M377.9 135.04C381.876 135.04 385.1 131.816 385.1 127.84C385.1 123.864 381.876 120.64 377.9 120.64C373.924 120.64 370.7 123.864 370.7 127.84C370.7 131.816 373.924 135.04 377.9 135.04Z" fill="#F9CEDF"/>
<path d="M364.06 159.68C366.335 159.68 368.18 157.835 368.18 155.56C368.18 153.285 366.335 151.44 364.06 151.44C361.785 151.44 359.94 153.285 359.94 155.56C359.94 157.835 361.785 159.68 364.06 159.68Z" fill="#F9CEDF"/>
<path d="M317.93 20.79C321.492 20.79 324.38 17.9022 324.38 14.34C324.38 10.7778 321.492 7.89001 317.93 7.89001C314.368 7.89001 311.48 10.7778 311.48 14.34C311.48 17.9022 314.368 20.79 317.93 20.79Z" fill="#F9CEDF"/>
<path d="M107.75 98.3C110.981 98.3 113.6 95.6809 113.6 92.45C113.6 89.2191 110.981 86.6 107.75 86.6C104.519 86.6 101.9 89.2191 101.9 92.45C101.9 95.6809 104.519 98.3 107.75 98.3Z" fill="#F9CEDF"/>
<path d="M325.77 61.59H324.77V85.58H325.77V61.59Z" fill="#4B0062"/>
<path d="M337.27 73.09H313.27V74.09H337.27V73.09Z" fill="#4B0062"/>
<path d="M319.438 67.0477L318.731 67.7548L331.106 80.1291L331.813 79.422L319.438 67.0477Z" fill="#4B0062"/>
<path d="M331.106 67.0476L318.731 79.422L319.438 80.1291L331.813 67.7547L331.106 67.0476Z" fill="#4B0062"/>
<path d="M325.27 59.56C326.043 59.56 326.67 58.687 326.67 57.61C326.67 56.533 326.043 55.66 325.27 55.66C324.497 55.66 323.87 56.533 323.87 57.61C323.87 58.687 324.497 59.56 325.27 59.56Z" fill="#4B0062"/>
<path d="M325.27 91.52C326.043 91.52 326.67 90.647 326.67 89.57C326.67 88.4931 326.043 87.62 325.27 87.62C324.497 87.62 323.87 88.4931 323.87 89.57C323.87 90.647 324.497 91.52 325.27 91.52Z" fill="#4B0062"/>
<path d="M341.25 74.99C342.327 74.99 343.2 74.3632 343.2 73.59C343.2 72.8168 342.327 72.19 341.25 72.19C340.173 72.19 339.3 72.8168 339.3 73.59C339.3 74.3632 340.173 74.99 341.25 74.99Z" fill="#4B0062"/>
<path d="M309.29 74.99C310.367 74.99 311.24 74.3632 311.24 73.59C311.24 72.8168 310.367 72.19 309.29 72.19C308.213 72.19 307.34 72.8168 307.34 73.59C307.34 74.3632 308.213 74.99 309.29 74.99Z" fill="#4B0062"/>
<path d="M80.6 290.58H79.6V308.77H80.6V290.58Z" fill="#4B0062"/>
<path d="M89.19 299.17H71V300.17H89.19V299.17Z" fill="#4B0062"/>
<path d="M75.7586 294.631L75.0515 295.338L84.4348 304.721L85.1419 304.014L75.7586 294.631Z" fill="#4B0062"/>
<path d="M84.4348 294.624L75.0515 304.007L75.7586 304.714L85.1419 295.331L84.4348 294.624Z" fill="#4B0062"/>
<path d="M92.21 300.73C93.0274 300.73 93.69 300.255 93.69 299.67C93.69 299.085 93.0274 298.61 92.21 298.61C91.3926 298.61 90.73 299.085 90.73 299.67C90.73 300.255 91.3926 300.73 92.21 300.73Z" fill="#4B0062"/>
<path d="M67.98 300.73C68.7974 300.73 69.46 300.255 69.46 299.67C69.46 299.085 68.7974 298.61 67.98 298.61C67.1626 298.61 66.5 299.085 66.5 299.67C66.5 300.255 67.1626 300.73 67.98 300.73Z" fill="#4B0062"/>
<path d="M85.27 29.76H84.27V44.85H85.27V29.76Z" fill="#4B0062"/>
<path d="M89.45 36.81H80.1V37.81H89.45V36.81Z" fill="#4B0062"/>
<path d="M98.18 41.33H97.18V50.77H98.18V41.33Z" fill="#4B0062"/>
<path d="M100.61 45.55H94.76V46.55H100.61V45.55Z" fill="#4B0062"/>
<path d="M351.02 224H350.02V233.44H351.02V224Z" fill="#4B0062"/>
<path d="M353.45 228.22H347.6V229.22H353.45V228.22Z" fill="#4B0062"/>
<path d="M5.86 284.08C8.59933 284.08 10.82 281.859 10.82 279.12C10.82 276.381 8.59933 274.16 5.86 274.16C3.12067 274.16 0.899994 276.381 0.899994 279.12C0.899994 281.859 3.12067 284.08 5.86 284.08Z" fill="#F9CEDF"/>
<path d="M20.85 300.74C22.4406 300.74 23.73 299.451 23.73 297.86C23.73 296.269 22.4406 294.98 20.85 294.98C19.2594 294.98 17.97 296.269 17.97 297.86C17.97 299.451 19.2594 300.74 20.85 300.74Z" fill="#F9CEDF"/>
<path d="M68.36 262.57C44.36 262.57 24.82 242.8 24.82 218.49C24.82 194.18 44.35 174.41 68.36 174.41C92.37 174.41 111.9 194.18 111.9 218.49C111.9 242.8 92.37 262.57 68.36 262.57ZM68.36 175.41C44.91 175.41 25.82 194.74 25.82 218.49C25.82 242.24 44.9 261.57 68.36 261.57C91.82 261.57 110.9 242.24 110.9 218.49C110.9 194.74 91.82 175.41 68.36 175.41Z" fill="black"/>
<path d="M111.39 218.49C111.39 242.56 92.13 262.07 68.39 262.07C44.65 262.07 25.39 242.56 25.39 218.49C25.3877 215.446 25.6994 212.41 26.32 209.43H110.53C111.127 212.412 111.415 215.448 111.39 218.49Z" fill="#F48001"/>
<path d="M68.36 262.57C44.36 262.57 24.82 242.8 24.82 218.49C24.8186 215.413 25.1336 212.343 25.76 209.33L25.84 208.93H110.84L110.92 209.33C111.546 212.343 111.861 215.413 111.86 218.49C111.89 242.79 92.37 262.57 68.36 262.57ZM26.66 209.93C26.1011 212.749 25.8198 215.616 25.82 218.49C25.82 242.24 44.9 261.57 68.36 261.57C91.82 261.57 110.89 242.24 110.89 218.49C110.89 215.616 110.609 212.749 110.05 209.93H26.66Z" fill="black"/>
<path d="M98.41 218.49C98.41 242.56 84.96 262.07 68.41 262.07C51.86 262.07 38.36 242.56 38.36 218.49C38.3557 215.458 38.5729 212.43 39.01 209.43H97.81C98.2303 212.431 98.4309 215.459 98.41 218.49Z" fill="#F48001"/>
<path d="M68.36 262.57C51.51 262.57 37.81 242.8 37.81 218.49C37.808 215.435 38.0286 212.383 38.47 209.36L38.53 208.93H98.2L98.26 209.36C98.7017 212.383 98.9222 215.435 98.92 218.49C98.91 242.79 85.21 262.57 68.36 262.57ZM39.36 209.93C38.9693 212.767 38.7755 215.627 38.78 218.49C38.78 242.24 52.04 261.57 68.33 261.57C84.62 261.57 97.88 242.24 97.88 218.49C97.8843 215.627 97.6905 212.767 97.3 209.93H39.36Z" fill="black"/>
<path d="M54.39 217.3L48.31 227.84H60.48L54.39 217.3Z" fill="black"/>
<path d="M82.34 217.3L76.25 227.84H88.42L82.34 217.3Z" fill="black"/>
<path d="M94.78 228.31C94.1879 234.907 91.1477 241.043 86.2581 245.511C81.3684 249.979 74.9834 252.454 68.36 252.45C67.61 252.45 66.87 252.45 66.13 252.35C63.7369 252.168 61.3809 251.653 59.13 250.82C54.4084 249.107 50.2759 246.077 47.2209 242.09C44.1659 238.103 42.3161 233.325 41.89 228.32C44.1832 231.689 47.1828 234.518 50.68 236.61C52.861 237.942 55.1945 239.006 57.63 239.78C60.6168 240.745 63.7231 241.29 66.86 241.4C67.34 241.4 67.86 241.4 68.31 241.4C70.1517 241.4 71.9907 241.256 73.81 240.97C76.0805 240.62 78.3089 240.037 80.46 239.23C82.9354 238.316 85.287 237.097 87.46 235.6C90.329 233.643 92.8108 231.171 94.78 228.31Z" fill="black"/>
<path d="M57.68 239.78V242.24H50.73V236.61C52.911 237.942 55.2444 239.006 57.68 239.78Z" fill="#F48001"/>
<path d="M73.86 241V244H66.86V241.4C67.34 241.4 67.86 241.4 68.31 241.4C70.1676 241.412 72.0233 241.279 73.86 241Z" fill="#F48001"/>
<path d="M87.47 235.64V240.56H80.47V239.27C82.9454 238.356 85.2969 237.137 87.47 235.64Z" fill="#F48001"/>
<path d="M81.29 246.65V249.11C79.0969 250.329 76.7392 251.225 74.29 251.77V246.65H81.29Z" fill="#F48001"/>
<path d="M66.13 247.25V252.35C63.7369 252.168 61.3809 251.653 59.13 250.82V247.25H66.13Z" fill="#F48001"/>
<path d="M198.18 340.46V337C198.18 335.891 197.74 334.828 196.956 334.044C196.172 333.26 195.109 332.82 194 332.82H182.39V337.34C178.509 337.689 174.9 339.478 172.27 342.353C169.641 345.229 168.182 348.984 168.18 352.88H219.67V340.46H198.18Z" fill="#76A6EF"/>
<path d="M220.17 353.37H167.68V352.87C167.655 348.919 169.093 345.099 171.717 342.145C174.34 339.191 177.964 337.312 181.89 336.87V332.3H194C195.241 332.3 196.432 332.793 197.309 333.671C198.187 334.548 198.68 335.739 198.68 336.98V339.98H220.17V353.37ZM168.69 352.37H219.17V341H197.68V337C197.68 336.024 197.292 335.088 196.602 334.398C195.912 333.708 194.976 333.32 194 333.32H182.89V337.79H182.43C178.745 338.099 175.305 339.759 172.769 342.45C170.233 345.141 168.781 348.674 168.69 352.37Z" fill="black"/>
<path d="M280.08 337.19L276.19 325.4L255.78 332.13L254.69 328.83C254.343 327.779 253.593 326.909 252.605 326.411C251.617 325.912 250.472 325.826 249.42 326.17L238.42 329.81L239.83 334.1C236.253 335.647 233.385 338.476 231.788 342.03C230.191 345.585 229.981 349.609 231.2 353.31L258.67 344.25L280.08 337.19Z" fill="#76A6EF"/>
<path d="M230.86 354L230.7 353.52C229.441 349.776 229.612 345.698 231.179 342.072C232.747 338.446 235.6 335.528 239.19 333.88L237.76 329.54L249.26 325.75C249.845 325.558 250.462 325.483 251.076 325.53C251.69 325.577 252.289 325.745 252.838 326.024C253.387 326.302 253.875 326.687 254.275 327.154C254.676 327.622 254.98 328.164 255.17 328.75L256.1 331.57L276.51 324.84L280.71 337.58L230.86 354ZM239 330.14L240.4 334.39L239.98 334.57C236.581 336.014 233.834 338.662 232.266 342.005C230.698 345.349 230.418 349.153 231.48 352.69L279.42 336.88L275.87 326L255.46 332.73L254.22 329C253.914 328.075 253.253 327.31 252.384 326.871C251.514 326.432 250.506 326.357 249.58 326.66L239 330.14Z" fill="black"/>
<path d="M154.83 23.43C156.703 23.1633 158.32 24.14 159.68 26.36C161.04 28.58 161.103 30.5133 159.87 32.16C162.777 30.9933 164.777 32.0166 165.87 35.23C166.963 38.4433 164.84 41.4433 159.5 44.23C155.98 38.45 152.333 32.5133 148.56 26.42C150.374 24.9263 152.527 23.8997 154.83 23.43ZM152.83 27.84L155.89 32.56C157.99 31.1 158.613 29.5667 157.76 27.96C156.907 26.3533 155.253 26.31 152.8 27.83L152.83 27.84ZM157.19 35.4L159.85 39.98C162.583 38.1 163.583 36.4633 162.85 35.07C162.117 33.6767 160.22 33.7833 157.16 35.39L157.19 35.4Z" fill="#F9CEDF"/>
<path d="M175.06 30.93C173.393 33.1033 171.423 33.6867 169.15 32.68C166.697 31.492 164.773 29.4359 163.75 26.91C162.417 24.07 162.443 21.63 163.83 19.59C164.413 18.6308 165.297 17.8918 166.345 17.4884C167.392 17.0849 168.544 17.0398 169.62 17.36C172.1 17.9134 174.043 19.77 175.45 22.93C176.857 26.09 176.727 28.7567 175.06 30.93ZM173 28.17C173.376 27.5068 173.574 26.7574 173.574 25.995C173.574 25.2326 173.376 24.4833 173 23.82C172.709 23.0621 172.243 22.3836 171.64 21.8397C171.037 21.2958 170.314 20.9019 169.53 20.69C169.207 20.5721 168.863 20.524 168.52 20.549C168.177 20.574 167.843 20.6714 167.541 20.8349C167.238 20.9985 166.974 21.2243 166.765 21.4975C166.557 21.7708 166.408 22.0852 166.33 22.42C166.055 23.1794 165.972 23.9951 166.089 24.7943C166.206 25.5935 166.519 26.3513 167 27C167.335 27.6256 167.79 28.179 168.339 28.6285C168.888 29.0781 169.521 29.415 170.2 29.62C170.761 29.7167 171.338 29.6274 171.844 29.3656C172.349 29.1039 172.755 28.684 173 28.17Z" fill="#F9CEDF"/>
<path d="M187.16 23.71C185.493 25.8833 183.523 26.4667 181.25 25.46C178.797 24.272 176.873 22.2158 175.85 19.69C174.517 16.85 174.543 14.41 175.93 12.37C176.513 11.4108 177.397 10.6718 178.445 10.2683C179.493 9.8649 180.644 9.81976 181.72 10.14C184.2 10.6933 186.143 12.55 187.55 15.71C188.957 18.87 188.827 21.5367 187.16 23.71ZM185.1 21C185.476 20.3368 185.674 19.5874 185.674 18.825C185.674 18.0626 185.476 17.3132 185.1 16.65C184.809 15.892 184.343 15.2135 183.74 14.6697C183.137 14.1258 182.414 13.7319 181.63 13.52C181.307 13.402 180.963 13.354 180.62 13.3789C180.277 13.4039 179.943 13.5014 179.641 13.6649C179.338 13.8284 179.074 14.0543 178.865 14.3275C178.657 14.6007 178.508 14.9152 178.43 15.25C178.146 16.0089 178.054 16.8266 178.164 17.6295C178.274 18.4325 178.582 19.1955 179.06 19.85C179.395 20.4759 179.85 21.0295 180.399 21.4791C180.948 21.9287 181.58 22.2655 182.26 22.47C182.829 22.5746 183.417 22.487 183.931 22.2209C184.446 21.9548 184.857 21.5253 185.1 21Z" fill="#F9CEDF"/>
<path d="M195 13.93C192.407 9.71665 190.033 5.94666 187.88 2.62L190.8 0.679993C193.413 5.65333 195.533 9.61332 197.16 12.56L195 13.93ZM197.4 18.83C196.613 17.6633 195.947 16.6633 195.4 15.83L198.45 13.83L200.2 17.09L197.4 18.83Z" fill="#F9CEDF"/>
<path d="M68.86 209.43H67.86V262.07H68.86V209.43Z" fill="black"/>
<defs>
<filter id="filter0_d_31_84" x="210.91" y="91.08" width="25.26" height="25.26" filterUnits="userSpaceOnUse" color-interpolation-filters="sRGB">
<feFlood flood-opacity="0" result="BackgroundImageFix"/>
<feColorMatrix in="SourceAlpha" type="matrix" values="0 0 0 0 0 0 0 0 0 0 0 0 0 0 0 0 0 0 127 0" result="hardAlpha"/>
<feOffset dy="4"/>
<feGaussianBlur stdDeviation="2"/>
<feComposite in2="hardAlpha" operator="out"/>
<feColorMatrix type="matrix" values="0 0 0 0 0 0 0 0 0 0 0 0 0 0 0 0 0 0 0.25 0"/>
<feBlend mode="normal" in2="BackgroundImageFix" result="effect1_dropShadow_31_84"/>
<feBlend mode="normal" in="SourceGraphic" in2="effect1_dropShadow_31_84" result="shape"/>
</filter>
</defs>
</svg>
