<svg width="77" height="14" viewBox="0 0 77 14" fill="none" xmlns="http://www.w3.org/2000/svg">
<path d="M6.21387 8.35449C6.21387 8.19954 6.19108 8.06055 6.14551 7.9375C6.09993 7.8099 6.01562 7.69141 5.89258 7.58203C5.76953 7.47266 5.5918 7.36328 5.35938 7.25391C5.13151 7.13997 4.83073 7.02148 4.45703 6.89844C4.01953 6.7526 3.59798 6.58854 3.19238 6.40625C2.78678 6.2194 2.42448 6.00293 2.10547 5.75684C1.78646 5.50618 1.53353 5.21452 1.34668 4.88184C1.15983 4.5446 1.06641 4.15267 1.06641 3.70605C1.06641 3.27767 1.16211 2.89258 1.35352 2.55078C1.54492 2.20443 1.81152 1.91048 2.15332 1.66895C2.49967 1.42285 2.90527 1.236 3.37012 1.1084C3.83496 0.976237 4.3431 0.910156 4.89453 0.910156C5.6237 0.910156 6.26628 1.03776 6.82227 1.29297C7.38281 1.54362 7.82031 1.90137 8.13477 2.36621C8.45378 2.8265 8.61328 3.37109 8.61328 4H6.22754C6.22754 3.74935 6.17513 3.52832 6.07031 3.33691C5.97005 3.14551 5.81738 2.99512 5.6123 2.88574C5.40723 2.77637 5.14974 2.72168 4.83984 2.72168C4.53906 2.72168 4.28613 2.76725 4.08105 2.8584C3.87598 2.94954 3.72103 3.07259 3.61621 3.22754C3.51139 3.37793 3.45898 3.54427 3.45898 3.72656C3.45898 3.87695 3.5 4.01367 3.58203 4.13672C3.66862 4.25521 3.78939 4.36686 3.94434 4.47168C4.10384 4.5765 4.29525 4.67676 4.51855 4.77246C4.74642 4.86816 5.00163 4.96159 5.28418 5.05273C5.81283 5.22135 6.28223 5.41048 6.69238 5.62012C7.1071 5.8252 7.45573 6.0599 7.73828 6.32422C8.02539 6.58398 8.24186 6.88021 8.3877 7.21289C8.53809 7.54557 8.61328 7.92155 8.61328 8.34082C8.61328 8.78743 8.52669 9.18392 8.35352 9.53027C8.18034 9.87663 7.93197 10.1706 7.6084 10.4121C7.28483 10.6491 6.89746 10.8291 6.44629 10.9521C5.99512 11.0752 5.49154 11.1367 4.93555 11.1367C4.42513 11.1367 3.92155 11.0729 3.4248 10.9453C2.93262 10.8132 2.486 10.6126 2.08496 10.3438C1.68392 10.0703 1.36263 9.72168 1.12109 9.29785C0.884115 8.86947 0.765625 8.36133 0.765625 7.77344H3.17188C3.17188 8.0651 3.21061 8.3112 3.28809 8.51172C3.36556 8.71224 3.47949 8.87402 3.62988 8.99707C3.78027 9.11556 3.96484 9.20215 4.18359 9.25684C4.40234 9.30697 4.65299 9.33203 4.93555 9.33203C5.24089 9.33203 5.48698 9.28874 5.67383 9.20215C5.86068 9.111 5.9974 8.99251 6.08398 8.84668C6.17057 8.69629 6.21387 8.53223 6.21387 8.35449ZM12.1748 3.60352V11H9.86426V3.60352H12.1748ZM9.72754 1.69629C9.72754 1.36816 9.84603 1.09928 10.083 0.889648C10.32 0.680013 10.6276 0.575195 11.0059 0.575195C11.3841 0.575195 11.6917 0.680013 11.9287 0.889648C12.1657 1.09928 12.2842 1.36816 12.2842 1.69629C12.2842 2.02441 12.1657 2.29329 11.9287 2.50293C11.6917 2.71257 11.3841 2.81738 11.0059 2.81738C10.6276 2.81738 10.32 2.71257 10.083 2.50293C9.84603 2.29329 9.72754 2.02441 9.72754 1.69629ZM15.9209 5.16895V11H13.6172V3.60352H15.7773L15.9209 5.16895ZM15.6406 7.04883L15.1143 7.0625C15.1143 6.54297 15.1758 6.06445 15.2988 5.62695C15.4219 5.18945 15.6042 4.80892 15.8457 4.48535C16.0872 4.16178 16.3835 3.91113 16.7344 3.7334C17.0898 3.55566 17.5 3.4668 17.9648 3.4668C18.2884 3.4668 18.5824 3.51693 18.8467 3.61719C19.111 3.71289 19.3389 3.86556 19.5303 4.0752C19.7217 4.28027 19.8675 4.54915 19.9678 4.88184C20.0726 5.20996 20.125 5.60417 20.125 6.06445V11H17.8213V6.3584C17.8213 6.04395 17.7848 5.80697 17.7119 5.64746C17.6436 5.48796 17.5433 5.38086 17.4111 5.32617C17.279 5.27148 17.1172 5.24414 16.9258 5.24414C16.7253 5.24414 16.5452 5.28971 16.3857 5.38086C16.2262 5.47201 16.0895 5.59961 15.9756 5.76367C15.8662 5.92318 15.7819 6.1123 15.7227 6.33105C15.668 6.5498 15.6406 6.78906 15.6406 7.04883ZM19.8652 7.04883L19.2227 7.0625C19.2227 6.54297 19.2796 6.06445 19.3936 5.62695C19.512 5.18945 19.6875 4.80892 19.9199 4.48535C20.1569 4.16178 20.4508 3.91113 20.8018 3.7334C21.1527 3.55566 21.5605 3.4668 22.0254 3.4668C22.3626 3.4668 22.6725 3.51693 22.9551 3.61719C23.2376 3.71745 23.4814 3.87923 23.6865 4.10254C23.8916 4.32585 24.0511 4.62207 24.165 4.99121C24.279 5.35579 24.3359 5.80697 24.3359 6.34473V11H22.0254V6.34473C22.0254 6.03939 21.9889 5.80924 21.916 5.6543C21.8477 5.49479 21.7474 5.3877 21.6152 5.33301C21.4831 5.27376 21.3258 5.24414 21.1436 5.24414C20.9248 5.24414 20.7357 5.28971 20.5762 5.38086C20.4167 5.47201 20.2822 5.59961 20.1729 5.76367C20.068 5.92318 19.9906 6.1123 19.9404 6.33105C19.8903 6.5498 19.8652 6.78906 19.8652 7.04883ZM27.9795 5.02539V13.8438H25.6758V3.60352H27.8223L27.9795 5.02539ZM32.5186 7.21289V7.35645C32.5186 7.89421 32.457 8.39323 32.334 8.85352C32.2109 9.3138 32.0286 9.71484 31.7871 10.0566C31.5456 10.3984 31.2448 10.665 30.8848 10.8564C30.5293 11.0433 30.1169 11.1367 29.6475 11.1367C29.2054 11.1367 28.8249 11.0387 28.5059 10.8428C28.1868 10.6468 27.9202 10.3757 27.7061 10.0293C27.4919 9.68294 27.3187 9.28646 27.1865 8.83984C27.0544 8.39323 26.9495 7.92155 26.8721 7.4248V7.24023C26.9495 6.70703 27.0544 6.21257 27.1865 5.75684C27.3187 5.29655 27.4919 4.89551 27.7061 4.55371C27.9202 4.21191 28.1846 3.94531 28.499 3.75391C28.818 3.5625 29.1986 3.4668 29.6406 3.4668C30.11 3.4668 30.5225 3.55566 30.8779 3.7334C31.238 3.91113 31.5387 4.16634 31.7803 4.49902C32.0264 4.82715 32.2109 5.22135 32.334 5.68164C32.457 6.14193 32.5186 6.65234 32.5186 7.21289ZM30.2148 7.35645V7.21289C30.2148 6.92578 30.1943 6.66374 30.1533 6.42676C30.1123 6.18522 30.0462 5.97559 29.9551 5.79785C29.8685 5.62012 29.7523 5.4834 29.6064 5.3877C29.4606 5.29199 29.2806 5.24414 29.0664 5.24414C28.8203 5.24414 28.613 5.28288 28.4443 5.36035C28.2803 5.43327 28.1481 5.5472 28.0479 5.70215C27.9521 5.85254 27.8838 6.04167 27.8428 6.26953C27.8063 6.49284 27.7904 6.75488 27.7949 7.05566V7.61621C27.7858 7.96257 27.82 8.2679 27.8975 8.53223C27.9749 8.79199 28.1094 8.99479 28.3008 9.14062C28.4922 9.28646 28.752 9.35938 29.0801 9.35938C29.2988 9.35938 29.4811 9.30924 29.627 9.20898C29.7728 9.10417 29.889 8.96061 29.9756 8.77832C30.0622 8.59147 30.1237 8.37728 30.1602 8.13574C30.1966 7.89421 30.2148 7.63444 30.2148 7.35645ZM35.9775 0.5V11H33.667V0.5H35.9775ZM39.9082 1.04688V11H37.5088V1.04688H39.9082ZM43.7773 5.18945V7.03516H39.2246V5.18945H43.7773ZM44.167 1.04688V2.89941H39.2246V1.04688H44.167ZM44.6182 7.37695V7.2334C44.6182 6.69108 44.6956 6.19206 44.8506 5.73633C45.0055 5.27604 45.2334 4.87728 45.5342 4.54004C45.835 4.2028 46.2064 3.94076 46.6484 3.75391C47.0905 3.5625 47.6009 3.4668 48.1797 3.4668C48.763 3.4668 49.2757 3.5625 49.7178 3.75391C50.1644 3.94076 50.5381 4.2028 50.8389 4.54004C51.1396 4.87728 51.3675 5.27604 51.5225 5.73633C51.6774 6.19206 51.7549 6.69108 51.7549 7.2334V7.37695C51.7549 7.91471 51.6774 8.41374 51.5225 8.87402C51.3675 9.32975 51.1396 9.72852 50.8389 10.0703C50.5381 10.4076 50.1667 10.6696 49.7246 10.8564C49.2826 11.0433 48.7721 11.1367 48.1934 11.1367C47.6146 11.1367 47.1019 11.0433 46.6553 10.8564C46.2087 10.6696 45.835 10.4076 45.5342 10.0703C45.2334 9.72852 45.0055 9.32975 44.8506 8.87402C44.6956 8.41374 44.6182 7.91471 44.6182 7.37695ZM46.9219 7.2334V7.37695C46.9219 7.65495 46.9424 7.91471 46.9834 8.15625C47.0244 8.39779 47.0928 8.6097 47.1885 8.79199C47.2842 8.96973 47.4141 9.10872 47.5781 9.20898C47.7422 9.30924 47.9473 9.35938 48.1934 9.35938C48.4349 9.35938 48.6354 9.30924 48.7949 9.20898C48.959 9.10872 49.0889 8.96973 49.1846 8.79199C49.2803 8.6097 49.3486 8.39779 49.3896 8.15625C49.4307 7.91471 49.4512 7.65495 49.4512 7.37695V7.2334C49.4512 6.96452 49.4307 6.71159 49.3896 6.47461C49.3486 6.23307 49.2803 6.02116 49.1846 5.83887C49.0889 5.65202 48.959 5.50618 48.7949 5.40137C48.6309 5.29655 48.4258 5.24414 48.1797 5.24414C47.9382 5.24414 47.7354 5.29655 47.5713 5.40137C47.4118 5.50618 47.2842 5.65202 47.1885 5.83887C47.0928 6.02116 47.0244 6.23307 46.9834 6.47461C46.9424 6.71159 46.9219 6.96452 46.9219 7.2334ZM55.1045 5.43555V11H52.8008V3.60352H54.9541L55.1045 5.43555ZM57.292 3.54883L57.251 5.68848C57.1598 5.67936 57.0368 5.66797 56.8818 5.6543C56.7269 5.64062 56.597 5.63379 56.4922 5.63379C56.2233 5.63379 55.9909 5.66569 55.7949 5.72949C55.6035 5.78874 55.444 5.87988 55.3164 6.00293C55.1934 6.12142 55.1022 6.27181 55.043 6.4541C54.9883 6.63639 54.9632 6.84831 54.9678 7.08984L54.5508 6.81641C54.5508 6.31966 54.5986 5.86849 54.6943 5.46289C54.7946 5.05273 54.9359 4.69954 55.1182 4.40332C55.3005 4.10254 55.5215 3.8724 55.7812 3.71289C56.041 3.54883 56.3327 3.4668 56.6562 3.4668C56.7702 3.4668 56.8818 3.47363 56.9912 3.4873C57.1051 3.50098 57.2054 3.52148 57.292 3.54883ZM60.4092 5.16895V11H58.1055V3.60352H60.2656L60.4092 5.16895ZM60.1289 7.04883L59.6025 7.0625C59.6025 6.54297 59.6641 6.06445 59.7871 5.62695C59.9102 5.18945 60.0924 4.80892 60.334 4.48535C60.5755 4.16178 60.8717 3.91113 61.2227 3.7334C61.5781 3.55566 61.9883 3.4668 62.4531 3.4668C62.7767 3.4668 63.0706 3.51693 63.335 3.61719C63.5993 3.71289 63.8271 3.86556 64.0186 4.0752C64.21 4.28027 64.3558 4.54915 64.4561 4.88184C64.5609 5.20996 64.6133 5.60417 64.6133 6.06445V11H62.3096V6.3584C62.3096 6.04395 62.2731 5.80697 62.2002 5.64746C62.1318 5.48796 62.0316 5.38086 61.8994 5.32617C61.7673 5.27148 61.6055 5.24414 61.4141 5.24414C61.2135 5.24414 61.0335 5.28971 60.874 5.38086C60.7145 5.47201 60.5778 5.59961 60.4639 5.76367C60.3545 5.92318 60.2702 6.1123 60.2109 6.33105C60.1562 6.5498 60.1289 6.78906 60.1289 7.04883ZM64.3535 7.04883L63.7109 7.0625C63.7109 6.54297 63.7679 6.06445 63.8818 5.62695C64.0003 5.18945 64.1758 4.80892 64.4082 4.48535C64.6452 4.16178 64.9391 3.91113 65.29 3.7334C65.641 3.55566 66.0488 3.4668 66.5137 3.4668C66.8509 3.4668 67.1608 3.51693 67.4434 3.61719C67.7259 3.71745 67.9697 3.87923 68.1748 4.10254C68.3799 4.32585 68.5394 4.62207 68.6533 4.99121C68.7673 5.35579 68.8242 5.80697 68.8242 6.34473V11H66.5137V6.34473C66.5137 6.03939 66.4772 5.80924 66.4043 5.6543C66.3359 5.49479 66.2357 5.3877 66.1035 5.33301C65.9714 5.27376 65.8141 5.24414 65.6318 5.24414C65.4131 5.24414 65.224 5.28971 65.0645 5.38086C64.9049 5.47201 64.7705 5.59961 64.6611 5.76367C64.5563 5.92318 64.4788 6.1123 64.4287 6.33105C64.3786 6.5498 64.3535 6.78906 64.3535 7.04883ZM74.0195 8.92188C74.0195 8.79427 73.9762 8.6849 73.8896 8.59375C73.8076 8.49805 73.6618 8.41146 73.4521 8.33398C73.2425 8.25195 72.9486 8.16992 72.5703 8.08789C72.2103 8.01042 71.8708 7.90788 71.5518 7.78027C71.2373 7.65267 70.9616 7.49772 70.7246 7.31543C70.4876 7.13314 70.3008 6.91667 70.1641 6.66602C70.0319 6.41536 69.9658 6.12826 69.9658 5.80469C69.9658 5.49023 70.0319 5.19401 70.1641 4.91602C70.3008 4.63346 70.499 4.38509 70.7588 4.1709C71.0231 3.95215 71.3444 3.78125 71.7227 3.6582C72.1009 3.5306 72.5316 3.4668 73.0146 3.4668C73.68 3.4668 74.2542 3.56934 74.7373 3.77441C75.2204 3.97493 75.5918 4.25749 75.8516 4.62207C76.1159 4.9821 76.248 5.39909 76.248 5.87305H73.9443C73.9443 5.6862 73.9124 5.52669 73.8486 5.39453C73.7894 5.26237 73.6914 5.16211 73.5547 5.09375C73.418 5.02083 73.2357 4.98438 73.0078 4.98438C72.8483 4.98438 72.7025 5.014 72.5703 5.07324C72.4427 5.13249 72.3402 5.21452 72.2627 5.31934C72.1852 5.42415 72.1465 5.5472 72.1465 5.68848C72.1465 5.78874 72.1693 5.87988 72.2148 5.96191C72.265 6.03939 72.3402 6.1123 72.4404 6.18066C72.5407 6.24447 72.6683 6.30371 72.8232 6.3584C72.9782 6.40853 73.165 6.4541 73.3838 6.49512C73.8805 6.58626 74.3454 6.71615 74.7783 6.88477C75.2113 7.05339 75.5622 7.29264 75.8311 7.60254C76.1045 7.91243 76.2412 8.32943 76.2412 8.85352C76.2412 9.18164 76.166 9.4847 76.0156 9.7627C75.8652 10.0361 75.6488 10.2777 75.3662 10.4873C75.0837 10.6924 74.7441 10.8519 74.3477 10.9658C73.9512 11.0798 73.5046 11.1367 73.0078 11.1367C72.3014 11.1367 71.7044 11.0114 71.2168 10.7607C70.7292 10.5055 70.36 10.1865 70.1094 9.80371C69.8633 9.41634 69.7402 9.02441 69.7402 8.62793H71.8867C71.8958 8.85579 71.9505 9.04264 72.0508 9.18848C72.1556 9.33431 72.2946 9.44141 72.4678 9.50977C72.641 9.57812 72.8415 9.6123 73.0693 9.6123C73.279 9.6123 73.4521 9.58268 73.5889 9.52344C73.7301 9.46419 73.8372 9.38444 73.9102 9.28418C73.9831 9.17936 74.0195 9.05859 74.0195 8.92188Z" fill="black"/>
</svg>
